<svg xmlns="http://www.w3.org/2000/svg" viewBox="0 0 509.42 508.33"><defs><style>.b539ef7f-f687-40b0-8f0d-526330cf7ac0{fill:#767576;}</style></defs><title>BlackLogoAS-DP</title><g id="f9c8ae3d-d0e2-4ae1-af6e-ab34c97f8435" data-name="Warstwa 2"><g id="b8fcd3e4-d027-4f8e-9317-38e90535bf69" data-name="BlackIconAS-DP 512w"><path d="M255.77,196.06v41.86a32.79,32.79,0,0,0,32.69,32.72H413.65a8,8,0,0,1,8,8v.49a8,8,0,0,1-8,8h-139l-64.45-90.28a50.82,50.82,0,0,0-88-2.66,1.45,1.45,0,0,1-.2.32L0,365.34V21.41A21.47,21.47,0,0,1,21.43,0H488a21.47,21.47,0,0,1,21.4,21.41V163.35h-221A32.78,32.78,0,0,0,255.77,196.06Z"/><path d="M79.72,463.29a7,7,0,0,0-5.58,2.46Q72,468.21,72,473.9t2.1,8.1a7.92,7.92,0,0,0,11.43.05c1.36-1.61,2-4.49,2-8.66,0-3.5-.7-6.06-2.12-7.68A7.25,7.25,0,0,0,79.72,463.29Z"/><polygon points="257.6 478.24 265.77 478.24 261.66 464.86 257.6 478.24"/><path d="M36.06,463.65H33.19V484H36a11.93,11.93,0,0,0,5.13-.8,5.39,5.39,0,0,0,2.38-2.79,17.4,17.4,0,0,0,.87-6.46c0-3.95-.65-6.65-1.93-8.1S39,463.65,36.06,463.65Z"/><path d="M226.92,462.78h-3.28v8.3h2.82c2.22,0,3.78-.38,4.67-1.15a3.72,3.72,0,0,0,1.35-3,4.12,4.12,0,0,0-1.17-3C230.53,463.19,229.07,462.78,226.92,462.78Z"/><path d="M327.77,215.82a8,8,0,0,0-8,8,8,8,0,0,0,2.35,5.67,7.85,7.85,0,0,0,5.67,2.37H455a32.81,32.81,0,0,1,32.72,32.69V307A32.78,32.78,0,0,1,455,339.68H247.61l-54.44-76.25-28-39.16-27.86,39L0,455.59v31.33a21.48,21.48,0,0,0,21.43,21.41H488a21.47,21.47,0,0,0,21.4-21.41V215.82ZM54.58,483a15.36,15.36,0,0,1-3.77,5.51,12.35,12.35,0,0,1-5.18,3,26.53,26.53,0,0,1-6.85,1H21.69V455.22H38.78a20.4,20.4,0,0,1,8.16,1.37,13.28,13.28,0,0,1,5.14,3.93,16.36,16.36,0,0,1,2.94,6,27.66,27.66,0,0,1,.92,7.21A25.1,25.1,0,0,1,54.58,483Zm42.32,1.3a15.66,15.66,0,0,1-6.35,6.5,20.89,20.89,0,0,1-10.34,2.32,23.74,23.74,0,0,1-10.42-2,15.66,15.66,0,0,1-6.69-6.34,21.1,21.1,0,0,1-2.57-10.87q0-9.11,5.08-14.19t14.14-5.08q9.28,0,14.32,5t5,14A23,23,0,0,1,96.9,484.25ZM147,492.43h-9.42V464.05l-7.26,28.38h-8.53l-7.24-28.38v28.38h-9.42V455.22h15.13l5.83,22.64,5.79-22.64H147Zm29.6-15.58v15.58H165.1V476.85l-14.49-21.63h12.77l7.5,12.55,7.51-12.55H191.1Zm53.31,1.77h-6.3v13.81H212.09V455.22h19.12q6.24,0,9.35,3c2.08,2,3.11,4.8,3.11,8.45s-1.12,6.7-3.38,8.81S234.58,478.62,229.94,478.62ZM270,492.43l-1.86-6.14H255.1l-1.81,6.14H241.54l14-37.21h12.55l14,37.21Zm45.48-5.5a12.42,12.42,0,0,1-5.54,4.58,22.39,22.39,0,0,1-9,1.56q-9.5,0-13.15-3.66a14.37,14.37,0,0,1-4.14-9.29l11-.68a8.27,8.27,0,0,0,1.44,4.06,6.11,6.11,0,0,0,5.08,2.26A5.61,5.61,0,0,0,305,484.6a3.46,3.46,0,0,0,1.34-2.68,3.42,3.42,0,0,0-1.27-2.58q-1.28-1.15-5.89-2.16-7.57-1.71-10.79-4.52a9.09,9.09,0,0,1-3.25-7.19,9.75,9.75,0,0,1,1.66-5.42,11.11,11.11,0,0,1,5-4,23.43,23.43,0,0,1,9.15-1.46q7.14,0,10.88,2.65t4.46,8.45l-10.84.63a5.07,5.07,0,0,0-5.64-4.8,4.67,4.67,0,0,0-3,.85,2.6,2.6,0,0,0-1,2.07,2.09,2.09,0,0,0,.83,1.6,9.4,9.4,0,0,0,3.86,1.37,48.67,48.67,0,0,1,10.81,3.29,11.32,11.32,0,0,1,4.74,4.13,10.43,10.43,0,0,1,1.49,5.5A11.84,11.84,0,0,1,315.5,486.93Zm88.24,5.5H392.46L385.93,469l-6.5,23.43H368.15l-8.24-37.07-14.38,21.49v15.58H334V476.85l-14.5-21.63h12.77l7.5,12.55,7.52-12.55h12.58l0,.14.09-.14h10.8l3.93,20.83,5.76-20.83h10.88l5.77,20.8,3.94-20.8H412Zm47.63,0H440.53L426.59,472v20.43H415.78V455.22h10.74l14,20.59V455.22h10.84Zm39,0H459V455.22H489.8v7.94H470.51v5.92h17.9v7.59h-17.9V484h19.85Z"/><polygon class="b539ef7f-f687-40b0-8f0d-526330cf7ac0" points="248.07 339.68 247.75 339.92 247.61 339.68 248.07 339.68"/></g></g></svg>